<?xml version="1.0" encoding="UTF-8"?>
<svg width="300" height="300" version="1.1" viewBox="0 0 79.375 79.375" xmlns="http://www.w3.org/2000/svg" xmlns:xlink="http://www.w3.org/1999/xlink">
 <defs>
  <linearGradient id="a">
   <stop stop-color="#fff" stop-opacity=".102" offset="0"/>
   <stop stop-color="#6f8491" stop-opacity="0" offset="1"/>
  </linearGradient>
  <linearGradient id="c" x1="10.893" x2="95.126" y1="297.37" y2="211.6" gradientUnits="userSpaceOnUse" xlink:href="#a"/>
  <linearGradient id="b" x1="10.893" x2="95.126" y1="297.37" y2="211.6" gradientTransform="translate(79.934)" gradientUnits="userSpaceOnUse" xlink:href="#a"/>
  <filter id="d" x="-.049794" y="-.07427" width="1.1203" height="1.1795" color-interpolation-filters="sRGB">
   <feFlood flood-color="rgb(0,0,0)" flood-opacity=".2" result="flood"/>
   <feComposite in="flood" in2="SourceGraphic" operator="in" result="composite1"/>
   <feGaussianBlur in="composite1" result="blur" stdDeviation="0.4"/>
   <feOffset dx="0.4" dy="0.4" result="offset"/>
   <feComposite in="SourceGraphic" in2="offset" result="composite2"/>
  </filter>
 </defs>
 <g transform="translate(-117.97 -116.55)" stroke-linecap="round" stroke-linejoin="round">
  <g transform="matrix(.84157 0 0 -.84157 113.05 370.41)" fill="#6f8491">
   <path d="m13.043 210.87c-1.974 0-3.6465 1.6725-3.6465 3.6465v79.932c0 1.974 1.6725 3.6465 3.6465 3.6465h79.934c1.974 0 3.6445-1.6725 3.6445-3.6465v-79.932c0-1.974-1.6705-3.6465-3.6445-3.6465z" color="#000000" style="-inkscape-stroke:none"/>
  </g>
  <g transform="matrix(.84157 0 0 .84157 113.05 -57.925)" fill="#fff" opacity=".2">
   <path transform="matrix(.35987 0 0 .35987 -.97091 200.5)" d="m38.941 28.809c-2.2135 0-4.2823 0.76602-5.9727 2.0293h234.07c-1.6893-1.2633-3.7591-2.0293-5.9727-2.0293z" fill="#fff" opacity=".2" style="-inkscape-stroke:none"/>
  </g>
  <g transform="matrix(1.1446 0 0 1.1446 -22.805 -26.648)">
   <g transform="matrix(2.2538 0 0 2.2538 94.854 -345.79)" fill="#b2f0d4">
    <path d="m24.549 217.86c-3.48 0-6.3223 2.8423-6.3223 6.3223v0.28125c0 3.48 2.8423 6.3223 6.3223 6.3223h6.6348c3.48 0 6.3223-2.8422 6.3223-6.3223v-0.28125c0-3.48-2.8423-6.3223-6.3223-6.3223zm0 2.6445h6.6348c2.06 0 3.6777 1.6178 3.6777 3.6777v0.28125c0 2.06-1.6177 3.6777-3.6777 3.6777h-6.6348c-2.06 0-3.6777-1.6178-3.6777-3.6777v-0.28125c0-2.06 1.6177-3.6777 3.6777-3.6777z" color="#000000" filter="url(#d)" style="-inkscape-stroke:none"/>
    <path d="m24.549 217.86c-3.48 0-6.3223 2.8423-6.3223 6.3223v0.28125c0 3.48 2.8423 6.3223 6.3223 6.3223h6.6348c3.48 0 6.3223-2.8422 6.3223-6.3223v-0.28125c0-3.48-2.8423-6.3223-6.3223-6.3223zm0 2.6445h6.6348c2.06 0 3.6777 1.6178 3.6777 3.6777v0.28125c0 2.06-1.6177 3.6777-3.6777 3.6777h-6.6348c-2.06 0-3.6777-1.6178-3.6777-3.6777v-0.28125c0-2.06 1.6177-3.6777 3.6777-3.6777z" color="#000000" style="-inkscape-stroke:none"/>
    <path d="m26.285 222.58h3.1611c0.96441 0 1.7408 0.77427 1.7408 1.736 0 0.96176-0.7764 1.736-1.7408 1.736h-3.1611c-0.96441 0-1.7408-0.77428-1.7408-1.736 0-0.96177 0.7764-1.736 1.7408-1.736z" stroke-width=".97165"/>
    <path transform="matrix(.1174 0 0 .1174 10.257 206.71)" d="m136.53 135.15c-8.2149 0-14.828 6.5946-14.828 14.787 0 0.22908 5e-3 0.45712 0.0156 0.68359 0.3567-7.8718 6.828-14.102 14.812-14.102h26.928c7.9846 0 14.454 6.23 14.811 14.102 0.0102-0.2265 0.0176-0.45448 0.0176-0.68359 0-8.1922-6.6131-14.787-14.828-14.787z" fill="#fff" opacity=".2"/>
    <path d="m26.285 226.05c-0.9644 0-1.7408-0.77418-1.7408-1.736 0-0.0269 6.32e-4 -0.0537 0.0018-0.0802 0.04188 0.92413 0.80158 1.6555 1.7389 1.6555h3.1612c0.93736 0 1.6968-0.73138 1.7387-1.6555 0.0012 0.0266 0.0021 0.0534 0.0021 0.0802 0 0.96174-0.77636 1.736-1.7408 1.736z" fill="#000" opacity=".1"/>
   </g>
   <g transform="matrix(2.2538 0 0 2.2538 94.854 -345.79)" fill="#fff">
    <path transform="matrix(.1174 0 0 .1174 10.257 205.14)" d="m121.74 108.31c-29.643 0-53.855 24.21-53.855 53.854v1.9258c0-29.643 24.212-53.854 53.855-53.854h56.516c29.643 0 53.855 24.21 53.855 53.854v-1.9258c0-29.643-24.212-53.854-53.855-53.854z" fill="#fff" opacity=".2" stroke-width="8.5182" style="-inkscape-stroke:none"/>
   </g>
   <g transform="matrix(2.2538 0 0 -2.2538 94.854 665.35)" opacity=".2" stroke-width="8.5182">
    <path transform="matrix(.1174 0 0 .1174 10.257 205.14)" d="m121.74 108.31c-29.643 0-53.855 24.21-53.855 53.854v1.9258c0-29.643 24.212-53.854 53.855-53.854h56.516c29.643 0 53.855 24.21 53.855 53.854v-1.9258c0-29.643-24.212-53.854-53.855-53.854z" opacity=".2" style="-inkscape-stroke:none"/>
    <path transform="matrix(.1174 0 0 .1174 10.257 205.14)" d="m121.74 108.31c-29.643 0-53.855 24.21-53.855 53.854v1.9258c0-29.643 24.212-53.854 53.855-53.854h56.516c29.643 0 53.855 24.21 53.855 53.854v-1.9258c0-29.643-24.212-53.854-53.855-53.854z" opacity=".2" style="-inkscape-stroke:none"/>
   </g>
  </g>
  <g transform="matrix(.84157 0 0 -.84157 113.05 370.41)" opacity=".2">
   <path transform="matrix(.35987 0 0 .35987 -.97091 200.5)" d="m38.941 28.809c-2.2135 0-4.2823 0.76602-5.9727 2.0293h234.07c-1.6893-1.2633-3.7591-2.0293-5.9727-2.0293z" opacity=".2" style="-inkscape-stroke:none"/>
  </g>
  <g transform="matrix(.84157 0 0 -.84157 45.776 370.41)" fill="url(#c)">
   <path d="m92.977 210.87c-1.974 0-3.6465 1.6725-3.6465 3.6465v79.932c0 1.974 1.6725 3.6465 3.6465 3.6465h79.934c1.974 0 3.6445-1.6725 3.6445-3.6465v-79.932c0-1.974-1.6705-3.6465-3.6445-3.6465z" color="#000000" fill="url(#b)" style="-inkscape-stroke:none"/>
  </g>
 </g>
</svg>
